# xmcd
#
# Track frame offsets: 
#        150
#        16022
#        30385
#        49835
#        68767
#        83397
#        112465
#        126600
#        145010
#        167577
#
# Disc length: 2547 seconds
#
# Revision: 2
# Processed by: cddbd v1.5.2PL0 Copyright (c) Steve Scherf et al.
# Submitted via: ExactAudioCopy v0.99pb4
#
DISCID=7e09f10a
DTITLE=Travis Tritt - Ten Feet Tall And Bulletproof
DYEAR=1994
DGENRE=Country
TTITLE0=Ten Feet Tall And Bulletproof
TTITLE1=Walkin' All Over My Heart
TTITLE2=Foolish Pride
TTITLE3=Outlaws Like Us
TTITLE4=Hard Times And Misery
TTITLE5=Tell Me I Was Dreaming
TTITLE6=Wishful Thinking
TTITLE7=Between An Old Memory And Me
TTITLE8=No Vacation From The Blues
TTITLE9=Southern Justice
EXTD=W2 45603 Warner Bros.
EXTT0=
EXTT1=
EXTT2=
EXTT3=
EXTT4=
EXTT5=
EXTT6=
EXTT7=
EXTT8=
EXTT9=
PLAYORDER=
